=============================
 Run: Sat May 30 06:12:21 UTC 2026
=============================
Generating Sinhala audio...
Generating English audio...
Creating Sinhala video...
ffmpeg version 8.1.1 Copyright (c) 2000-2026 the FFmpeg developers
  built with Apple clang version 17.0.0 (clang-1700.6.4.2)
  configuration: --prefix=/opt/homebrew/Cellar/ffmpeg/8.1.1 --enable-shared --enable-pthreads --enable-version3 --cc=clang --host-cflags= --host-ldflags= --enable-ffplay --enable-gpl --enable-libsvtav1 --enable-libopus --enable-libx264 --enable-libmp3lame --enable-libdav1d --enable-libvmaf --enable-libvpx --enable-libx265 --enable-openssl --enable-videotoolbox --enable-audiotoolbox --enable-neon
  libavutil      60. 26.101 / 60. 26.101
  libavcodec     62. 28.101 / 62. 28.101
  libavformat    62. 12.101 / 62. 12.101
  libavdevice    62.  3.101 / 62.  3.101
  libavfilter    11. 14.101 / 11. 14.101
  libswscale      9.  5.101 /  9.  5.101
  libswresample   6.  3.101 /  6.  3.101
Input #0, image2, from 'poster.jpg':
  Duration: 00:00:00.04, start: 0.000000, bitrate: 43548 kb/s
  Stream #0:0: Video: mjpeg (Progressive), yuvj420p(pc, bt470bg/unknown/unknown), 842x1191 [SAR 1:1 DAR 842:1191], 25 fps, 25 tbr, 25 tbn
[in#1/mp3 @ 0x152607150] Estimating duration from bitrate, this may be inaccurate
Input #1, mp3, from 'sinhala.mp3':
  Duration: 00:01:17.16, start: 0.000000, bitrate: 48 kb/s
  Stream #1:0: Audio: mp3 (mp3float), 24000 Hz, mono, fltp, 48 kb/s
Stream mapping:
  Stream #0:0 -> #0:0 (mjpeg (native) -> h264 (libx264))
  Stream #1:0 -> #0:1 (mp3 (mp3float) -> aac (native))
Press [q] to stop, [?] for help
[aac @ 0x15260ada0] Too many bits 8192.000000 > 6144 per frame requested, clamping to max
[swscaler @ 0x1485e0000] deprecated pixel format used, make sure you did set range correctly
[libx264 @ 0x152608b50] using SAR=1190/1191
[libx264 @ 0x152608b50] using cpu capabilities: ARMv8 NEON DotProd
[libx264 @ 0x152608b50] profile High, level 3.2, 4:2:0, 8-bit
[libx264 @ 0x152608b50] 264 - core 165 r3222 b35605a - H.264/MPEG-4 AVC codec - Copyleft 2003-2025 - http://www.videolan.org/x264.html - options: cabac=1 ref=3 deblock=1:-3:-3 analyse=0x3:0x113 me=hex subme=7 psy=1 psy_rd=2.00:0.70 mixed_ref=1 me_range=16 chroma_me=1 trellis=1 8x8dct=1 cqm=0 deadzone=21,11 fast_pskip=1 chroma_qp_offset=-4 threads=4 lookahead_threads=1 sliced_threads=0 nr=0 decimate=1 interlaced=0 bluray_compat=0 constrained_intra=0 bframes=3 b_pyramid=2 b_adapt=1 b_bias=0 direct=1 weightb=1 open_gop=0 weightp=2 keyint=250 keyint_min=25 scenecut=40 intra_refresh=0 rc_lookahead=40 rc=crf mbtree=1 crf=23.0 qcomp=0.60 qpmin=0 qpmax=69 qpstep=4 ip_ratio=1.40 aq=1:1.20
Output #0, mp4, to 'vesak_sinhala.mp4':
  Metadata:
    encoder         : Lavf62.12.101
  Stream #0:0: Video: h264 (avc1 / 0x31637661), yuv420p(pc, bt470bg/unknown/unknown, progressive), 842x1190 [SAR 1190:1191 DAR 842:1191], q=2-31, 25 fps, 12800 tbn
    Metadata:
      encoder         : Lavc62.28.101 libx264
    Side data:
      CPB properties: bitrate max/min/avg: 0/0/0 buffer size: 0 vbv_delay: N/A
  Stream #0:1: Audio: aac (LC) (mp4a / 0x6134706D), 24000 Hz, mono, fltp, 144 kb/s
    Metadata:
      encoder         : Lavc62.28.101 aac
frame=    4 fps=0.0 q=28.0 size=       0KiB time=00:00:00.08 bitrate=   4.8kbits/s speed=0.134x elapsed=0:00:00.59    frame=   52 fps= 43 q=28.0 size=     256KiB time=00:00:02.00 bitrate=1048.8kbits/s speed=1.66x elapsed=0:00:01.20    frame=  122 fps= 67 q=28.0 size=     256KiB time=00:00:04.80 bitrate= 437.0kbits/s speed=2.62x elapsed=0:00:01.83    frame=  199 fps= 81 q=28.0 size=     256KiB time=00:00:07.92 bitrate= 264.8kbits/s speed=3.22x elapsed=0:00:02.45    frame=  205 fps= 67 q=28.0 size=     256KiB time=00:00:08.12 bitrate= 258.3kbits/s speed=2.63x elapsed=0:00:03.08    frame=  205 fps= 56 q=28.0 size=     256KiB time=00:00:08.12 bitrate= 258.3kbits/s speed=2.22x elapsed=0:00:03.65    frame=  234 fps= 56 q=28.0 size=     256KiB time=00:00:09.28 bitrate= 226.0kbits/s speed=2.21x elapsed=0:00:04.20    frame=  315 fps= 66 q=28.0 size=     512KiB time=00:00:12.52 bitrate= 335.0kbits/s speed=2.63x elapsed=0:00:04.76    frame=  409 fps= 76 q=28.0 size=     512KiB time=00:00:16.28 bitrate= 257.7kbits/s speed=3.04x elapsed=0:00:05.34    frame=  495 fps= 83 q=28.0 size=     768KiB time=00:00:19.72 bitrate= 319.1kbits/s speed=3.32x elapsed=0:00:05.94    frame=  565 fps= 88 q=28.0 size=    1024KiB time=00:00:22.52 bitrate= 372.5kbits/s speed=3.49x elapsed=0:00:06.45    frame=  646 fps= 93 q=28.0 size=    1024KiB time=00:00:25.80 bitrate= 325.2kbits/s speed=3.71x elapsed=0:00:06.95    frame=  743 fps= 98 q=28.0 size=    1024KiB time=00:00:29.64 bitrate= 283.0kbits/s speed=3.91x elapsed=0:00:07.58    frame=  820 fps=101 q=28.0 size=    1280KiB time=00:00:32.72 bitrate= 320.5kbits/s speed=4.03x elapsed=0:00:08.11    frame=  913 fps=105 q=28.0 size=    1536KiB time=00:00:36.44 bitrate= 345.3kbits/s speed=4.19x elapsed=0:00:08.69    frame=  979 fps=106 q=28.0 size=    1536KiB time=00:00:39.08 bitrate= 322.0kbits/s speed=4.24x elapsed=0:00:09.20    frame= 1053 fps=107 q=28.0 size=    1792KiB time=00:00:42.04 bitrate= 349.2kbits/s speed=4.27x elapsed=0:00:09.84    frame= 1154 fps=110 q=28.0 size=    1792KiB time=00:00:46.12 bitrate= 318.3kbits/s speed= 4.4x elapsed=0:00:10.47    frame= 1253 fps=113 q=28.0 size=    2048KiB time=00:00:50.04 bitrate= 335.3kbits/s speed=4.52x elapsed=0:00:11.08    frame= 1347 fps=116 q=28.0 size=    2304KiB time=00:00:53.80 bitrate= 350.8kbits/s speed=4.62x elapsed=0:00:11.64    frame= 1431 fps=117 q=28.0 size=    2304KiB time=00:00:57.16 bitrate= 330.2kbits/s speed=4.69x elapsed=0:00:12.18    frame= 1500 fps=118 q=28.0 size=    2304KiB time=00:00:59.92 bitrate= 315.0kbits/s speed=4.72x elapsed=0:00:12.70    frame= 1571 fps=118 q=28.0 size=    2560KiB time=00:01:02.76 bitrate= 334.2kbits/s speed=4.72x elapsed=0:00:13.30    frame= 1655 fps=119 q=28.0 size=    2560KiB time=00:01:06.12 bitrate= 317.2kbits/s speed=4.74x elapsed=0:00:13.94    frame= 1717 fps=119 q=28.0 size=    2560KiB time=00:01:08.60 bitrate= 305.7kbits/s speed=4.74x elapsed=0:00:14.46    frame= 1785 fps=118 q=28.0 size=    3072KiB time=00:01:11.32 bitrate= 352.9kbits/s speed=4.73x elapsed=0:00:15.08    frame= 1861 fps=118 q=28.0 size=    3072KiB time=00:01:14.36 bitrate= 338.4kbits/s speed=4.73x elapsed=0:00:15.72    [out#0/mp4 @ 0x600001730480] video:2344KiB audio:838KiB subtitle:0KiB other streams:0KiB global headers:0KiB muxing overhead: 1.523791%
frame= 1965 fps=120 q=-1.0 Lsize=    3230KiB time=00:01:17.16 bitrate= 342.9kbits/s speed=4.73x elapsed=0:00:16.31    
[libx264 @ 0x152608b50] frame I:8     Avg QP:17.66  size:278149
[libx264 @ 0x152608b50] frame P:495   Avg QP:17.37  size:   166
[libx264 @ 0x152608b50] frame B:1462  Avg QP:32.46  size:    63
[libx264 @ 0x152608b50] consecutive B-frames:  0.8%  0.1%  0.0% 99.1%
[libx264 @ 0x152608b50] mb I  I16..4: 22.4% 27.3% 50.3%
[libx264 @ 0x152608b50] mb P  I16..4:  0.0%  0.0%  0.0%  P16..4:  0.5%  0.0%  0.0%  0.0%  0.0%    skip:99.4%
[libx264 @ 0x152608b50] mb B  I16..4:  0.0%  0.0%  0.0%  B16..8:  0.6%  0.0%  0.0%  direct: 0.0%  skip:99.4%  L0:40.3% L1:59.6% BI: 0.0%
[libx264 @ 0x152608b50] 8x8 transform intra:27.2% inter:82.5%
[libx264 @ 0x152608b50] coded y,uvDC,uvAC intra: 67.0% 82.3% 77.7% inter: 0.0% 0.0% 0.0%
[libx264 @ 0x152608b50] i16 v,h,dc,p: 61% 34%  3%  3%
[libx264 @ 0x152608b50] i8 v,h,dc,ddl,ddr,vr,hd,vl,hu: 17% 27% 23%  4%  5%  4%  7%  4% 11%
[libx264 @ 0x152608b50] i4 v,h,dc,ddl,ddr,vr,hd,vl,hu: 20% 27% 15%  5%  7%  6%  7%  5%  8%
[libx264 @ 0x152608b50] i8c dc,h,v,p: 35% 37% 19%  9%
[libx264 @ 0x152608b50] Weighted P-Frames: Y:0.0% UV:0.0%
[libx264 @ 0x152608b50] ref P L0: 92.3%  1.2%  5.5%  0.9%
[libx264 @ 0x152608b50] ref B L0: 59.1% 40.6%  0.2%
[libx264 @ 0x152608b50] ref B L1: 93.6%  6.4%
[libx264 @ 0x152608b50] kb/s:244.18
[aac @ 0x15260ada0] Qavg: 65485.891
Creating English video...
ffmpeg version 8.1.1 Copyright (c) 2000-2026 the FFmpeg developers
  built with Apple clang version 17.0.0 (clang-1700.6.4.2)
  configuration: --prefix=/opt/homebrew/Cellar/ffmpeg/8.1.1 --enable-shared --enable-pthreads --enable-version3 --cc=clang --host-cflags= --host-ldflags= --enable-ffplay --enable-gpl --enable-libsvtav1 --enable-libopus --enable-libx264 --enable-libmp3lame --enable-libdav1d --enable-libvmaf --enable-libvpx --enable-libx265 --enable-openssl --enable-videotoolbox --enable-audiotoolbox --enable-neon
  libavutil      60. 26.101 / 60. 26.101
  libavcodec     62. 28.101 / 62. 28.101
  libavformat    62. 12.101 / 62. 12.101
  libavdevice    62.  3.101 / 62.  3.101
  libavfilter    11. 14.101 / 11. 14.101
  libswscale      9.  5.101 /  9.  5.101
  libswresample   6.  3.101 /  6.  3.101
Input #0, image2, from 'poster.jpg':
  Duration: 00:00:00.04, start: 0.000000, bitrate: 43548 kb/s
  Stream #0:0: Video: mjpeg (Progressive), yuvj420p(pc, bt470bg/unknown/unknown), 842x1191 [SAR 1:1 DAR 842:1191], 25 fps, 25 tbr, 25 tbn
[in#1/mp3 @ 0x148f04360] Estimating duration from bitrate, this may be inaccurate
Input #1, mp3, from 'english.mp3':
  Duration: 00:01:12.84, start: 0.000000, bitrate: 48 kb/s
  Stream #1:0: Audio: mp3 (mp3float), 24000 Hz, mono, fltp, 48 kb/s
Stream mapping:
  Stream #0:0 -> #0:0 (mjpeg (native) -> h264 (libx264))
  Stream #1:0 -> #0:1 (mp3 (mp3float) -> aac (native))
Press [q] to stop, [?] for help
[aac @ 0x148e0ab30] Too many bits 8192.000000 > 6144 per frame requested, clamping to max
[swscaler @ 0x1404c0000] deprecated pixel format used, make sure you did set range correctly
[libx264 @ 0x148e088e0] using SAR=1190/1191
[libx264 @ 0x148e088e0] using cpu capabilities: ARMv8 NEON DotProd
[libx264 @ 0x148e088e0] profile High, level 3.2, 4:2:0, 8-bit
[libx264 @ 0x148e088e0] 264 - core 165 r3222 b35605a - H.264/MPEG-4 AVC codec - Copyleft 2003-2025 - http://www.videolan.org/x264.html - options: cabac=1 ref=3 deblock=1:-3:-3 analyse=0x3:0x113 me=hex subme=7 psy=1 psy_rd=2.00:0.70 mixed_ref=1 me_range=16 chroma_me=1 trellis=1 8x8dct=1 cqm=0 deadzone=21,11 fast_pskip=1 chroma_qp_offset=-4 threads=4 lookahead_threads=1 sliced_threads=0 nr=0 decimate=1 interlaced=0 bluray_compat=0 constrained_intra=0 bframes=3 b_pyramid=2 b_adapt=1 b_bias=0 direct=1 weightb=1 open_gop=0 weightp=2 keyint=250 keyint_min=25 scenecut=40 intra_refresh=0 rc_lookahead=40 rc=crf mbtree=1 crf=23.0 qcomp=0.60 qpmin=0 qpmax=69 qpstep=4 ip_ratio=1.40 aq=1:1.20
Output #0, mp4, to 'vesak_english.mp4':
  Metadata:
    encoder         : Lavf62.12.101
  Stream #0:0: Video: h264 (avc1 / 0x31637661), yuv420p(pc, bt470bg/unknown/unknown, progressive), 842x1190 [SAR 1190:1191 DAR 842:1191], q=2-31, 25 fps, 12800 tbn
    Metadata:
      encoder         : Lavc62.28.101 libx264
    Side data:
      CPB properties: bitrate max/min/avg: 0/0/0 buffer size: 0 vbv_delay: N/A
  Stream #0:1: Audio: aac (LC) (mp4a / 0x6134706D), 24000 Hz, mono, fltp, 144 kb/s
    Metadata:
      encoder         : Lavc62.28.101 aac
frame=   30 fps=0.0 q=28.0 size=     256KiB time=00:00:01.12 bitrate=1872.8kbits/s speed=2.03x elapsed=0:00:00.55    frame=   96 fps= 88 q=28.0 size=     256KiB time=00:00:03.76 bitrate= 557.9kbits/s speed=3.43x elapsed=0:00:01.09    frame=  164 fps=102 q=28.0 size=     256KiB time=00:00:06.48 bitrate= 323.7kbits/s speed=4.03x elapsed=0:00:01.60    frame=  239 fps=110 q=28.0 size=     256KiB time=00:00:09.48 bitrate= 221.3kbits/s speed=4.35x elapsed=0:00:02.17    frame=  313 fps=112 q=28.0 size=     512KiB time=00:00:12.44 bitrate= 337.2kbits/s speed=4.44x elapsed=0:00:02.80    frame=  399 fps=116 q=28.0 size=     512KiB time=00:00:15.88 bitrate= 264.1kbits/s speed=4.61x elapsed=0:00:03.44    frame=  478 fps=118 q=28.0 size=     768KiB time=00:00:19.04 bitrate= 330.5kbits/s speed=4.68x elapsed=0:00:04.06    frame=  531 fps=116 q=28.0 size=    1024KiB time=00:00:21.20 bitrate= 395.7kbits/s speed=4.63x elapsed=0:00:04.57    frame=  615 fps=118 q=28.0 size=    1024KiB time=00:00:24.52 bitrate= 342.1kbits/s speed= 4.7x elapsed=0:00:05.21    frame=  687 fps=118 q=28.0 size=    1024KiB time=00:00:27.40 bitrate= 306.2kbits/s speed= 4.7x elapsed=0:00:05.82    frame=  687 fps=107 q=28.0 size=    1024KiB time=00:00:27.40 bitrate= 306.2kbits/s speed=4.26x elapsed=0:00:06.42    frame=  713 fps=101 q=28.0 size=    1024KiB time=00:00:28.44 bitrate= 295.0kbits/s speed=4.03x elapsed=0:00:07.05    frame=  793 fps=104 q=28.0 size=    1536KiB time=00:00:31.64 bitrate= 397.7kbits/s speed=4.16x elapsed=0:00:07.60    frame=  891 fps=109 q=28.0 size=    1536KiB time=00:00:35.56 bitrate= 353.9kbits/s speed=4.34x elapsed=0:00:08.19    frame=  983 fps=112 q=28.0 size=    1536KiB time=00:00:39.24 bitrate= 320.7kbits/s speed=4.45x elapsed=0:00:08.81    frame= 1071 fps=114 q=28.0 size=    1792KiB time=00:00:42.76 bitrate= 343.3kbits/s speed=4.54x elapsed=0:00:09.42    frame= 1172 fps=117 q=28.0 size=    1792KiB time=00:00:46.80 bitrate= 313.7kbits/s speed=4.65x elapsed=0:00:10.05    frame= 1259 fps=118 q=28.0 size=    2304KiB time=00:00:50.28 bitrate= 375.4kbits/s speed=4.73x elapsed=0:00:10.63    frame= 1363 fps=121 q=28.0 size=    2304KiB time=00:00:54.44 bitrate= 346.7kbits/s speed=4.83x elapsed=0:00:11.27    frame= 1435 fps=122 q=28.0 size=    2304KiB time=00:00:57.32 bitrate= 329.3kbits/s speed=4.86x elapsed=0:00:11.78    frame= 1523 fps=123 q=28.0 size=    2560KiB time=00:01:00.84 bitrate= 344.7kbits/s speed=4.89x elapsed=0:00:12.42    frame= 1615 fps=124 q=28.0 size=    2816KiB time=00:01:04.52 bitrate= 357.5kbits/s speed=4.96x elapsed=0:00:12.99    frame= 1705 fps=126 q=28.0 size=    2816KiB time=00:01:08.12 bitrate= 338.7kbits/s speed=5.03x elapsed=0:00:13.55    frame= 1787 fps=127 q=28.0 size=    3072KiB time=00:01:11.40 bitrate= 352.5kbits/s speed=5.07x elapsed=0:00:14.08    [out#0/mp4 @ 0x6000007f0540] video:2337KiB audio:917KiB subtitle:0KiB other streams:0KiB global headers:0KiB muxing overhead: 1.412887%
frame= 1867 fps=129 q=-1.0 Lsize=    3300KiB time=00:01:12.84 bitrate= 371.2kbits/s speed=5.05x elapsed=0:00:14.42    
[libx264 @ 0x148e088e0] frame I:8     Avg QP:17.66  size:278149
[libx264 @ 0x148e088e0] frame P:470   Avg QP:17.34  size:   171
[libx264 @ 0x148e088e0] frame B:1389  Avg QP:32.37  size:    63
[libx264 @ 0x148e088e0] consecutive B-frames:  0.8%  0.0%  0.0% 99.2%
[libx264 @ 0x148e088e0] mb I  I16..4: 22.4% 27.3% 50.3%
[libx264 @ 0x148e088e0] mb P  I16..4:  0.0%  0.0%  0.0%  P16..4:  0.5%  0.0%  0.0%  0.0%  0.0%    skip:99.4%
[libx264 @ 0x148e088e0] mb B  I16..4:  0.0%  0.0%  0.0%  B16..8:  0.6%  0.0%  0.0%  direct: 0.0%  skip:99.4%  L0:40.3% L1:59.7% BI: 0.0%
[libx264 @ 0x148e088e0] 8x8 transform intra:27.2% inter:82.1%
[libx264 @ 0x148e088e0] coded y,uvDC,uvAC intra: 67.0% 82.3% 77.7% inter: 0.1% 0.0% 0.0%
[libx264 @ 0x148e088e0] i16 v,h,dc,p: 61% 34%  3%  3%
[libx264 @ 0x148e088e0] i8 v,h,dc,ddl,ddr,vr,hd,vl,hu: 17% 27% 23%  4%  5%  4%  7%  4% 11%
[libx264 @ 0x148e088e0] i4 v,h,dc,ddl,ddr,vr,hd,vl,hu: 20% 27% 15%  5%  7%  6%  7%  5%  8%
[libx264 @ 0x148e088e0] i8c dc,h,v,p: 35% 37% 19%  9%
[libx264 @ 0x148e088e0] Weighted P-Frames: Y:0.0% UV:0.0%
[libx264 @ 0x148e088e0] ref P L0: 92.4%  1.2%  5.4%  1.0%
[libx264 @ 0x148e088e0] ref B L0: 58.6% 41.1%  0.3%
[libx264 @ 0x148e088e0] ref B L1: 93.4%  6.6%
[libx264 @ 0x148e088e0] kb/s:256.31
[aac @ 0x148e0ab30] Qavg: 65494.660

Done!
  vesak_sinhala.mp4
  vesak_english.mp4
